<?xml version="1.0"?>
<svg xmlns="http://www.w3.org/2000/svg" version="1" viewBox="0 0 26 26" enable-background="new 0 0 26 26">
    <path d="M 15 0.09375 C 15 0.09375 5 5.20625 5 13.90625 C 5 19.40625 11 21 11 21 C 11 21 9 18 9 14 C 9 9 13 6 13 6 C 11.7 12 14 14 14 14 C 14 14 13.6875 12.1 14.6875 11 C 15.2875 13.6 17 14.69375 17 17.09375 C 17 18.89375 15.3125 21 15.3125 21 C 18.1125 20.1 20 17.1 20 14 C 20 8.2 13.8 5.09375 15 0.09375 z M 5.6875 22 C 4.7875 22 4 22.7875 4 23.6875 L 4 24 L 4 26 L 22 26 L 22 24 L 22 23.6875 C 22 22.7875 21.2125 22 20.3125 22 L 20 22 L 20 24 L 18 24 L 18 22 L 16 22 L 16 24 L 14 24 L 14 22 L 12 22 L 12 24 L 10 24 L 10 22 L 8 22 L 8 24 L 6 24 L 6 22 L 5.6875 22 z"/>
</svg>
